<?xml version="1.0" encoding="utf-8"?>
<!-- Generator: Adobe Illustrator 23.0.1, SVG Export Plug-In . SVG Version: 6.00 Build 0)  -->
<svg version="1.1" id="Layer_1" xmlns="http://www.w3.org/2000/svg" xmlns:xlink="http://www.w3.org/1999/xlink" x="0px" y="0px"
	 viewBox="0 0 720 720" style="enable-background:new 0 0 720 720;" xml:space="preserve">
<style type="text/css">
	.st0{fill-rule:evenodd;clip-rule:evenodd;fill:#87CEEB;}
	.st1{fill-rule:evenodd;clip-rule:evenodd;fill:#FFC000;}
</style>
<path class="st0" d="M466.74,298.74c46.38,41.39,67.15,94.38,47.67,135.11c-26.44,55.28-117.01,67.03-202.28,26.25
	c-1.9-0.91-3.78-1.84-5.65-2.79v-96.89l-52.58-61.53L360,404.52v-0.71l0,0.71l106.16-105.69l-52.64,62.54v98.09l53.21-54.59V298.74z
	"/>
<path class="st1" d="M205.59,286.15c26.44-55.28,117.01-67.03,202.28-26.25c4.91,2.35,9.7,4.83,14.35,7.41L360,328.48v-0.01
	l-69.13-67.94l-37.61,37.61l-0.06,0.06l0.06,0.06c0,10.84-0.13,122.73,0,123C206.86,379.9,186.11,326.88,205.59,286.15"/>
</svg>
